<mxfile host="app.diagrams.net" modified="2021-03-14T14:36:04.061Z" agent="5.0 (Macintosh; Intel Mac OS X 11_0_1) AppleWebKit/537.36 (KHTML, like Gecko) Chrome/89.0.4389.82 Safari/537.36" etag="Nb-walGlxxY8ViIuUGrY" version="14.4.3" type="github">
  <diagram id="lUESfkxzVbZWtq0dm8Qa" name="Page-1">
    <mxGraphModel dx="1186" dy="707" grid="1" gridSize="10" guides="1" tooltips="1" connect="1" arrows="1" fold="1" page="1" pageScale="1" pageWidth="827" pageHeight="1169" math="0" shadow="0">
      <root>
        <mxCell id="0" />
        <mxCell id="1" parent="0" />
        <mxCell id="u76BFFMhq0Mk_Gslh-bQ-3" style="edgeStyle=orthogonalEdgeStyle;rounded=0;orthogonalLoop=1;jettySize=auto;html=1;entryX=0;entryY=0.5;entryDx=0;entryDy=0;" edge="1" parent="1" source="u76BFFMhq0Mk_Gslh-bQ-1" target="u76BFFMhq0Mk_Gslh-bQ-2">
          <mxGeometry relative="1" as="geometry" />
        </mxCell>
        <mxCell id="u76BFFMhq0Mk_Gslh-bQ-1" value="&lt;font style=&quot;font-size: 24px&quot;&gt;npm&lt;/font&gt;" style="rounded=0;whiteSpace=wrap;html=1;" vertex="1" parent="1">
          <mxGeometry x="140" y="140" width="120" height="50" as="geometry" />
        </mxCell>
        <mxCell id="u76BFFMhq0Mk_Gslh-bQ-6" style="edgeStyle=orthogonalEdgeStyle;rounded=0;orthogonalLoop=1;jettySize=auto;html=1;" edge="1" parent="1" source="u76BFFMhq0Mk_Gslh-bQ-2" target="u76BFFMhq0Mk_Gslh-bQ-5">
          <mxGeometry relative="1" as="geometry" />
        </mxCell>
        <mxCell id="u76BFFMhq0Mk_Gslh-bQ-2" value="&lt;span style=&quot;font-size: 24px&quot;&gt;Webpack&lt;/span&gt;" style="rounded=0;whiteSpace=wrap;html=1;" vertex="1" parent="1">
          <mxGeometry x="330" y="140" width="120" height="50" as="geometry" />
        </mxCell>
        <mxCell id="u76BFFMhq0Mk_Gslh-bQ-4" value="脚本" style="text;html=1;align=center;verticalAlign=middle;resizable=0;points=[];autosize=1;" vertex="1" parent="1">
          <mxGeometry x="270" y="140" width="40" height="20" as="geometry" />
        </mxCell>
        <mxCell id="u76BFFMhq0Mk_Gslh-bQ-5" value="&lt;span style=&quot;font-size: 24px&quot;&gt;业务逻辑&lt;/span&gt;" style="rounded=0;whiteSpace=wrap;html=1;" vertex="1" parent="1">
          <mxGeometry x="510" y="140" width="120" height="50" as="geometry" />
        </mxCell>
      </root>
    </mxGraphModel>
  </diagram>
</mxfile>
